<svg xmlns="http://www.w3.org/2000/svg" viewBox="0 0 160 160"><defs><filter id="s"><feDropShadow dx="0" dy="8" stdDeviation="6" flood-opacity=".3"/></filter></defs><path d="M92 35c22 4 31-10 30-22 25 28 11 53-5 69 8-1 17-5 23-14 1 36-31 65-69 58 28-20 13-42 21-91z" fill="#f97316"/><path d="M102 54c9 15 7 32-4 45 16-6 26-18 29-34 10 30-19 58-54 59 20-15 23-39 29-70z" fill="#ef4444" opacity=".75"/><circle cx="66" cy="86" r="38" fill="#fff" stroke="#111827" stroke-width="4" filter="url(#s)"/><path d="M66 52l17 13-6 20H55l-6-20zM39 82l16 3 6 20-14 10c-8-9-11-20-8-33zM93 82l-16 3-6 20 14 10c8-9 11-20 8-33z" fill="#111827"/></svg>