<svg xmlns="http://www.w3.org/2000/svg" viewBox="0 0 160 160"><defs><radialGradient id="g" cx="35%" cy="25%"><stop offset="0" stop-color="#7dd3fc"/><stop offset="1" stop-color="#2563eb"/></radialGradient><filter id="s"><feDropShadow dx="0" dy="8" stdDeviation="6" flood-opacity=".25"/></filter></defs><circle cx="80" cy="80" r="56" fill="url(#g)" filter="url(#s)"/><path d="M46 64c16-16 28-4 34-20 10 8 15 16 3 28-12 2-14 16-29 13zM95 80c22 2 34 9 31 28-15 11-32 13-45 2 8-6 5-21 14-30z" fill="#65a30d"/><path d="M24 80h112M80 24c-18 22-18 90 0 112M80 24c18 22 18 90 0 112" fill="none" stroke="rgba(255,255,255,.45)" stroke-width="4"/></svg>